<?xml version="1.0" encoding="UTF-8"?>
<svg width="47px" height="48px" viewBox="0 0 47 48" version="1.1" xmlns="http://www.w3.org/2000/svg" xmlns:xlink="http://www.w3.org/1999/xlink">
    <title>gift</title>
    <g id="页面-1" stroke="none" stroke-width="1" fill="none" fill-rule="evenodd">
        <g id="trip-component-platform-h5" transform="translate(-82.000000, -202.000000)">
            <g id="gift" transform="translate(82.000000, 202.000000)">
                <g id="编组" transform="translate(23.055657, 23.710090) scale(-1, 1) translate(-23.055657, -23.710090) ">
                    <path d="M0.621912917,24.8902543 L7.47905577,23.7797819 C6.30509386,23.0823465 6.01160338,22.418555 6.59858434,21.7884074 C7.47905577,20.8431861 3.17257532,20.0760622 0.960648851,24.0970088 C0.852078731,24.2476594 0.739166751,24.5120746 0.621912917,24.8902543 Z" id="路径-5" fill="#FC7F00" fill-rule="nonzero"></path>
                    <path d="M0.621912917,25.0794656 C2.09414371,21.2491605 4.74415915,20.5785461 8.57195923,23.0676225 C12.3997593,25.5566988 13.5163189,32.0227807 11.9216381,42.4658681 L19.8443013,39.6934084 C20.4858202,27.196493 16.253186,20.5478226 7.14639902,19.7473971 C4.07267498,20.1525666 1.89784627,21.9299227 0.621912917,25.0794656 Z" id="路径-4" fill="#FFB800" fill-rule="nonzero"></path>
                    <polygon id="路径" fill="#BE6604" fill-rule="nonzero" points="7.41048434 39.5220049 6.38191292 24.4020049 23.2504843 21.4788257 40.8390557 24.4020049 39.8104843 39.5220049"></polygon>
                    <g id="编组-5" transform="translate(19.479056, 16.318826)" fill-rule="nonzero">
                        <circle id="椭圆形" fill="#D45C01" cx="6.22285714" cy="6.22285714" r="6.22285714"></circle>
                        <ellipse id="椭圆形备份" fill="#FF6F00" cx="5.65714286" cy="5.94" rx="5.65714286" ry="5.37428571"></ellipse>
                        <path d="M6.61888002,3.84428468 C6.35673536,3.73408595 6.11216337,3.68748268 5.89066921,3.70144664 C5.55664169,3.71860393 5.24673659,3.89906888 4.95845494,4.23422119 L5.60496657,4.6382065 C5.77222561,4.44625293 5.94928653,4.35218836 6.13932153,4.3509362 C6.18786664,4.34984913 6.23897738,4.35498901 6.29265374,4.36635586 L5.57936355,5.50785878 L5.0801213,5.38945271 C5.01906661,5.37616247 4.98132841,5.3692456 4.96697912,5.36895192 C4.45195391,5.32242074 4.07582069,5.48267809 3.84425059,5.85326771 C3.61902488,6.2137042 3.60401982,6.57844315 3.79606322,6.95256113 C3.90810578,7.16500634 4.07532298,7.36516151 4.30036575,7.55468313 L3.98629251,8.05730537 L4.69518685,8.50027171 L5.00148498,8.01009223 C5.35514314,8.18162813 5.67142142,8.24896212 5.95264241,8.20837728 C6.31771863,8.15415117 6.64733013,7.92952993 6.94147689,7.53451355 L6.28362295,7.12344079 C6.09598429,7.37324752 5.90171594,7.52008868 5.70149113,7.55026742 C5.58709484,7.56657723 5.46021177,7.54949285 5.32084192,7.49901429 L6.07461273,6.29272884 L6.72571029,6.45381158 C7.24323446,6.50896306 7.61369653,6.34516198 7.84843882,5.96949578 C8.05780357,5.63444215 8.07463436,5.29202037 7.89643223,4.93361015 C7.78158109,4.69327683 7.59702465,4.47564904 7.33711011,4.27231068 L7.60303054,3.84674904 L6.89413621,3.4037827 L6.61888002,3.84428468 Z M4.63858075,6.97169758 C4.57252791,6.90455634 4.51602386,6.83628129 4.47102344,6.76730102 C4.34502843,6.57592802 4.32983988,6.40373121 4.42264548,6.2552112 C4.53051541,6.08258323 4.77834998,6.04288073 5.16050141,6.13644993 L4.63858075,6.97169758 Z M6.27902754,5.67400274 L6.80094821,4.83875508 C6.88947031,4.91741466 6.95585926,4.99489623 6.99894022,5.06797852 C7.11023845,5.23814937 7.10929017,5.40735983 7.00471863,5.57470929 C6.92028971,5.7098238 6.72453368,5.75205363 6.41745055,5.70139878 L6.27902754,5.67400274 Z" id="形状" fill="#FFAA6A"></path>
                    </g>
                    <path d="M12.2507421,13.9616533 C12.1323907,13.7566626 12.2026528,13.4945854 12.407568,13.3762775 C12.6126015,13.2579014 12.8746981,13.3280912 12.9930496,13.5330819 C13.1114351,13.7381317 13.0411729,14.0002089 12.8361395,14.118585 C12.6312243,14.2368929 12.3691276,14.1667031 12.2507421,13.9616533 Z M25.9149868,29.9325939 L18.5573293,13.6501533 C18.5107347,13.5470935 18.41622,13.4737836 18.30658,13.4557284 L11.9812908,12.4119077 C11.8463108,12.3896191 11.712688,12.4474399 11.6374321,12.5606721 L8.00112882,18.0292453 C7.93880944,18.1230888 7.92981083,18.2443581 7.97722123,18.3496085 L15.3331949,34.6281607 C15.4585522,34.9057433 15.779022,35.0335293 16.0491716,34.9137808 L25.652692,30.6522481 C25.9227916,30.5324128 26.0402599,30.2102251 25.9149868,29.9325939 Z" id="形状" fill="#3264FF" fill-rule="nonzero"></path>
                    <path d="M14.2267483,21.824792 C14.4451433,21.7124786 14.6531979,21.6903975 14.8506241,21.7586632 C15.0481898,21.8269966 15.2831263,21.9943295 15.5558522,22.2608654 C15.828482,22.5274393 16.0779481,22.7497959 16.3043373,22.9281469 C16.5306739,23.1066418 16.7561353,23.243525 16.9808177,23.3387583 C17.205308,23.4340678 17.4357544,23.4796428 17.6721912,23.4758389 C17.9086372,23.4717853 18.1572922,23.4024749 18.4183827,23.2681872 C18.8687723,23.0366913 19.1569929,22.6870202 19.2827996,22.2193943 C19.4086589,21.7516244 19.3613945,21.2405285 19.1410681,20.6857131 L19.9963136,20.245944 L19.6365461,19.5355179 L18.7691417,19.9815848 C18.4371874,19.4917033 18.0331837,19.1828446 17.5568609,19.0546235 C17.0805381,18.9264025 16.5825134,18.9960316 16.063084,19.2631469 L16.712885,20.5463986 C17.0325946,20.3818539 17.3086776,20.3323065 17.5416236,20.397316 C17.7743775,20.4624018 17.9528753,20.6176606 18.0772905,20.863516 C18.2003073,21.1062344 18.233401,21.3260387 18.1770428,21.5229881 C18.1205451,21.7198697 17.9831158,21.8746451 17.7646248,21.9869966 C17.5621008,22.0911713 17.3666706,22.1097231 17.1781604,22.0422288 C16.9895883,21.9751281 16.7417326,21.797537 16.4347327,21.5095232 C16.1277327,21.2215094 15.8598166,20.9925642 15.6311674,20.8228613 C15.402422,20.6531964 15.177053,20.5266125 14.9551657,20.4428216 C14.733173,20.3593186 14.5098628,20.3229725 14.2853745,20.333851 C14.0608335,20.3448735 13.8273291,20.4127292 13.5847651,20.5374561 C13.131816,20.770336 12.8437339,21.1162607 12.7201347,21.5753826 C12.596492,22.0343986 12.6488994,22.5523144 12.877174,23.1289566 L12.0817964,23.5379736 L12.4392169,24.2440394 L13.2306376,23.8370835 C13.5965757,24.4138957 14.0283587,24.7842136 14.5263184,24.9480289 C15.0237109,25.111823 15.5458393,25.0533082 16.0920932,24.7723574 L15.4422488,23.4889998 C15.1250986,23.6521605 14.8396174,23.6934991 14.5857524,23.6131593 C14.3318782,23.5330693 14.1254913,23.335959 13.96653,23.0222221 C13.834658,22.7617279 13.7923867,22.5239065 13.8397937,22.3092194 C13.8872441,22.0946382 14.0162672,21.9329832 14.2267483,21.824792" id="Fill-26" fill="#FFFFFF" fill-rule="nonzero"></path>
                    <polygon id="矩形" fill="#FFB400" fill-rule="nonzero" points="6.38191292 24.4020049 25.6161986 27.384862 27.8276272 36.1186857 25.6161986 47.420179 7.41048434 42.7662152"></polygon>
                    <g id="Combined-Shape备份" transform="translate(11.764770, 30.461683)">
                        <g id="path-1-link" fill="#000000" fill-rule="nonzero">
                            <path d="M3.8346136,1.38525685 L4.9793814,2.65526955 L6.5571429,2.93682335 L6.5571429,4.62754805 L7.7142857,5.96653745 L6.5571429,6.83698465 L6.5571429,8.51206485 L4.9793814,8.19934975 L3.8099759,9.00000005 L2.6405705,7.71483325 L1.0713118,7.40325255 L1.0713118,5.88522275 L0,4.47237785 L1.0713118,3.61503515 L1.0713118,1.95786915 L2.6898458,2.24669875 L3.8346136,1.38525685 Z M3.880231,3.54358765 C3.8731422,3.54738485 3.8669413,3.55249055 3.8618806,3.55869715 L3.3187423,4.22328455 L2.4027308,4.31290535 C2.3608514,4.31696105 2.3365089,4.35599275 2.3483604,4.40009165 C2.3512302,4.41077065 2.3561049,4.42114515 2.3626961,4.43060165 L2.9434238,5.26534465 L2.9171428,6.17983395 C2.9158964,6.22320115 2.9501547,6.26617705 2.9936609,6.27582415 C3.0030764,6.27791205 3.0124639,6.27829985 3.0213781,6.27696905 L3.9260204,6.14088175 L4.8306628,6.62617145 C4.8718528,6.64831655 4.916643,6.63475855 4.9307043,6.59588125 C4.9337474,6.58746695 4.9351678,6.57826175 4.934898,6.56870255 L4.9086171,5.63745835 L5.4893448,5.01431385 C5.5165647,4.98502985 5.5110991,4.93382405 5.4771371,4.89995475 C5.4689133,4.89175445 5.459451,4.88506045 5.4493101,4.88026855 L4.5332986,4.44831375 L3.9901602,3.58210575 C3.9648714,3.54184865 3.9156545,3.52460885 3.880231,3.54358765 Z M5.6280998,0.582734452 C5.7151479,0.597576752 5.7857143,0.681083552 5.7857143,0.769252152 L5.7857143,2.07995795 L5.0999407,1.95937255 L3.9308717,0.847702252 L2.7618027,1.54822985 L2.0663266,1.42593375 L2.0663266,0.132916052 C2.0663266,0.0517359523 2.1277978,-0.00461484771 2.2067673,0.000297852295 L2.2239411,0.00230155229 L5.6280998,0.582734452 Z" id="path-1"></path>
                        </g>
                        <g id="path-1-link" fill="#FF9E00">
                            <path d="M3.8346136,1.38525685 L4.9793814,2.65526955 L6.5571429,2.93682335 L6.5571429,4.62754805 L7.7142857,5.96653745 L6.5571429,6.83698465 L6.5571429,8.51206485 L4.9793814,8.19934975 L3.8099759,9.00000005 L2.6405705,7.71483325 L1.0713118,7.40325255 L1.0713118,5.88522275 L0,4.47237785 L1.0713118,3.61503515 L1.0713118,1.95786915 L2.6898458,2.24669875 L3.8346136,1.38525685 Z M3.880231,3.54358765 C3.8731422,3.54738485 3.8669413,3.55249055 3.8618806,3.55869715 L3.3187423,4.22328455 L2.4027308,4.31290535 C2.3608514,4.31696105 2.3365089,4.35599275 2.3483604,4.40009165 C2.3512302,4.41077065 2.3561049,4.42114515 2.3626961,4.43060165 L2.9434238,5.26534465 L2.9171428,6.17983395 C2.9158964,6.22320115 2.9501547,6.26617705 2.9936609,6.27582415 C3.0030764,6.27791205 3.0124639,6.27829985 3.0213781,6.27696905 L3.9260204,6.14088175 L4.8306628,6.62617145 C4.8718528,6.64831655 4.916643,6.63475855 4.9307043,6.59588125 C4.9337474,6.58746695 4.9351678,6.57826175 4.934898,6.56870255 L4.9086171,5.63745835 L5.4893448,5.01431385 C5.5165647,4.98502985 5.5110991,4.93382405 5.4771371,4.89995475 C5.4689133,4.89175445 5.459451,4.88506045 5.4493101,4.88026855 L4.5332986,4.44831375 L3.9901602,3.58210575 C3.9648714,3.54184865 3.9156545,3.52460885 3.880231,3.54358765 Z M5.6280998,0.582734452 C5.7151479,0.597576752 5.7857143,0.681083552 5.7857143,0.769252152 L5.7857143,2.07995795 L5.0999407,1.95937255 L3.9308717,0.847702252 L2.7618027,1.54822985 L2.0663266,1.42593375 L2.0663266,0.132916052 C2.0663266,0.0517359523 2.1277978,-0.00461484771 2.2067673,0.000297852295 L2.2239411,0.00230155229 L5.6280998,0.582734452 Z" id="path-1"></path>
                        </g>
                    </g>
                    <polygon id="矩形" fill="#FA9C00" fill-rule="nonzero" transform="translate(33.227628, 35.911092) scale(-1, 1) translate(-33.227628, -35.911092) " points="25.6161995 24.4020049 40.8390566 27.384862 40.8390566 47.420179 26.6447709 41.2762057"></polygon>
                    <polygon id="矩形" fill-opacity="0.678403628" fill="#F28600" fill-rule="nonzero" opacity="0.44938151" points="33.5618124 25.8158012 37.5757522 25.0525462 36.563654 42.6838159 32.9704843 44.2210648"></polygon>
                    <polygon id="蒙版" fill="#F9C000" fill-rule="nonzero" transform="translate(22.209427, 14.078342) rotate(37.000000) translate(-22.209427, -14.078342) " points="12.2590411 11.3474297 31.5810444 11.1983422 32.1598133 16.9583422 13.1834058 16.4556736"></polygon>
                    <path d="M37.6497721,19.386271 L41.9773259,20.7844636 L39.3332565,24.8853285 L35.2210803,23.936359 L37.6497721,19.386271 Z M20.9781682,9.67079084 L25.1760261,12.7827944 L22.3942789,17.5675414 L18.6646558,14.5995591 L20.9781682,9.67079084 Z" id="形状" fill="#FF9600" fill-rule="nonzero"></path>
                    <polygon id="蒙版" fill="#FFC946" fill-rule="nonzero" transform="translate(30.820757, 13.954454) rotate(37.000000) translate(-30.820757, -13.954454) " points="29.4979165 12.5905234 47.5738994 11.403997 32.9143236 16.4764374 14.0676154 16.5049108"></polygon>
                    <polygon id="路径" fill="#FFA424" fill-rule="nonzero" points="23.6391401 9.07255379 26.854961 10.4038679 31.5363892 13.6185538 35.2859865 15.003123 39.6186695 17.450669 34.9593892 15.9685538 42.0661151 20.8480482 37.702666 19.4298014 31.5143892 14.8725538 25.1416528 12.8460388 20.9693892 9.71672754 28.0763892 12.3405538"></polygon>
                    <polygon id="蒙版" fill="#FA9C00" fill-rule="nonzero" transform="translate(37.186682, 21.504183) rotate(9.000000) translate(-37.186682, -21.504183) " points="45.7076081 20.6564577 30.3826044 18.2529028 28.6657564 23.727038 43.3629109 24.7554627"></polygon>
                    <path d="M31.5442343,14.1071886 L34.9817404,15.553785 C37.7429827,18.4845081 38.3660664,21.7560203 36.8509916,25.3683216 C34.5783793,30.7867736 30.1554983,30.4413517 37.807928,37.2002331 C34.4904284,38.5374987 32.6021857,39.2683887 32.1431999,39.3929029 C27.8290341,37.4005184 27.2235827,34.1705943 30.3268458,29.7031307 C34.9817404,23.0019352 38.6325261,19.1974166 32.1223755,14.5575656 C31.736948,14.2573143 31.5442343,14.1071886 31.5442343,14.1071886 Z" id="蒙版" fill="#5960E6" fill-rule="nonzero" transform="translate(33.093642, 26.750046) rotate(-3.000000) translate(-33.093642, -26.750046) "></path>
                    <path d="M41.208027,7.71515544 C43.1815667,9.87724725 41.5101786,12.2598463 36.1938625,14.8629525 L31.2711685,14.3849625 C35.3629643,8.33321757 38.6752504,6.10994858 41.208027,7.71515544 Z M25.1088174,1.56131965 C25.9003023,1.73136741 26.2905466,3.75686714 26.2795504,7.63781883 C26.2818213,9.67814975 27.6431597,11.7156598 30.3635655,13.7503489 C30.4834227,13.8826743 30.785957,14.0889707 31.2711685,14.3692382 C26.4575922,13.168327 23.6178504,10.9245206 22.7519431,7.63781883 C21.453082,2.70776623 23.9215902,1.306248 25.1088174,1.56131965 Z" id="形状" fill="#4B52E3" fill-rule="nonzero" transform="translate(32.196883, 8.197810) rotate(9.000000) translate(-32.196883, -8.197810) "></path>
                    <path d="M41.1198841,8.21423004 C42.4466464,9.50561202 43.5939444,10.8407791 44.5617779,12.2197313 C45.4722337,13.6259846 44.0066255,16.85423 40.348994,16.85423 C38.976517,16.85423 35.942717,16.1745746 31.247594,14.8152638 C33.578903,15.0138802 36.1198354,14.3162962 38.8703912,12.7225118 C41.6209471,11.1287273 42.3707781,9.62596671 41.1198841,8.21423004 Z M24.335594,1.88169084 C25.6136417,1.77795996 26.5372794,1.76834452 27.1065071,1.85284454 C28.7385116,2.09511035 30.0564906,2.78787694 30.5182539,3.49320162 C31.5732808,5.10471239 30.7302197,6.02048327 29.1905682,9.4982661 C27.6509167,12.9760489 34.2785771,16.3059957 29.463227,13.9834094 C24.6478768,11.6608232 25.1423209,9.09332356 25.6365574,6.43370186 C25.9660485,4.66062073 25.532394,3.14328372 24.335594,1.88169084 Z" id="形状" fill="#7378E6" fill-rule="nonzero" transform="translate(34.580165, 9.325087) rotate(9.000000) translate(-34.580165, -9.325087) "></path>
                    <path d="M7.17905577,7.65139224 L6.64555824,9.4210425 L5.67009687,9.95454004 L6.64555824,10.4880375 L7.17905577,12.2576878 L7.71255331,10.4880375 L8.68801468,9.95454004 L7.71255331,9.4210425 L7.17905577,7.65139224 Z M1.88619863,3.00417672 L1.21932671,5.21623955 L0,5.88311147 L1.21932671,6.54998339 L1.88619863,8.76204622 L2.55307055,6.54998339 L3.77239726,5.88311147 L2.55307055,5.21623955 L1.88619863,3.00417672 Z M11.4540557,0 L10.9872454,1.54844398 L10.1337167,2.01525433 L10.9872454,2.48206467 L11.4540557,4.03050865 L11.9208661,2.48206467 L12.7743948,2.01525433 L11.9208661,1.54844398 L11.4540557,0 Z" id="形状" fill="#FF6F00" fill-rule="nonzero"></path>
                </g>
            </g>
        </g>
    </g>
</svg>