<?xml version="1.0" encoding="UTF-8"?>
<svg width="48px" height="48px" viewBox="0 0 48 48" version="1.1" xmlns="http://www.w3.org/2000/svg" xmlns:xlink="http://www.w3.org/1999/xlink">
    <title>sale</title>
    <g id="页面-1" stroke="none" stroke-width="1" fill="none" fill-rule="evenodd">
        <g id="trip-component-platform-ol" transform="translate(-33.000000, -761.000000)">
            <g id="sale" transform="translate(33.000000, 761.000000)">
                <rect id="矩形" x="0" y="0" width="48" height="48"></rect>
                <g transform="translate(0.000000, 3.000000)" fill-rule="nonzero">
                    <path d="M2,9.28635464 L39,9.28635464 C40.1045695,9.28635464 41,10.1817851 41,11.2863546 L41,34.5458028 C41,35.6503723 40.1045695,36.5458028 39,36.5458028 L24.6428571,36.5458028 L24.6428571,36.5458028 L20.25,41.1428571 L15.8773813,36.5458028 L2,36.5458028 C0.8954305,36.5458028 0,35.6503723 0,34.5458028 L0,11.2863546 C0,10.1817851 0.8954305,9.28635464 2,9.28635464 Z" id="矩形" fill="#FFFFFF"></path>
                    <g id="编组-3备份" transform="translate(7.500000, 0.000000)" fill="#FFFFFF">
                        <path d="M38.1369231,0 C39.4420144,0 40.5,1.05798558 40.5,2.36307692 L40.5,25.0931868 C40.5,26.3982782 39.4420144,27.4562637 38.1369231,27.4562637 L35.735,27.4562637 L35.7352941,9.40951125 C35.7352941,7.83641007 34.5055883,6.55052207 32.9550089,6.46067944 L32.781448,6.45566509 L0,6.455 L0,2.36307692 C0,1.05798558 1.05798558,0 2.36307692,0 L38.1369231,0 Z" id="形状结合"></path>
                        <polygon id="矩形" transform="translate(20.594635, 28.361073) rotate(45.000000) translate(-20.594635, -28.361073) " points="16.9488617 24.7153001 24.1681644 24.7875439 24.2404082 32.0068466 17.0211056 31.9346027"></polygon>
                    </g>
                    <polygon id="-" fill="#3264FF" points="14.6545056 23.7837363 14.6545056 20.5714286 8.57142871 20.5714286 8.57142871 23.7837363"></polygon>
                    <path d="M20.4197803,22.563956 C22.4413188,22.563956 23.6967034,21.1885714 23.6967034,18.9731868 C23.6967034,16.7578022 22.4690111,15.4285714 20.4197803,15.4285714 C18.3797803,15.4285714 17.1428573,16.767033 17.1428573,18.9731868 C17.1428573,21.1885714 18.3982419,22.563956 20.4197803,22.563956 Z M21.3613188,29.3208791 L31.0628573,16.0008791 L27.9243957,16.0008791 L18.2228573,29.3208791 L21.3613188,29.3208791 Z M20.4197803,20.4593407 C20.032088,20.4593407 19.8013188,19.887033 19.8013188,18.9824176 C19.8013188,18.0501099 20.0228573,17.5331868 20.4197803,17.5331868 C20.8259342,17.5331868 21.0474726,18.0501099 21.0474726,18.9731868 C21.0474726,19.9054945 20.8167034,20.4593407 20.4197803,20.4593407 Z M29.1243957,29.5608791 C31.1459342,29.5608791 32.4013188,28.1854945 32.4013188,25.9701099 C32.4013188,23.7547253 31.1736265,22.4254945 29.1243957,22.4254945 C27.0843957,22.4254945 25.8474726,23.763956 25.8474726,25.9701099 C25.8474726,28.1854945 27.1028573,29.5608791 29.1243957,29.5608791 Z M29.1243957,27.4562637 C28.7367034,27.4562637 28.5059342,26.883956 28.5059342,25.9793407 C28.5059342,25.047033 28.7274726,24.5301099 29.1243957,24.5301099 C29.5305496,24.5301099 29.752088,25.047033 29.752088,25.9701099 C29.752088,26.9024176 29.5213188,27.4562637 29.1243957,27.4562637 Z" id="%" fill="#3264FF"></path>
                </g>
            </g>
        </g>
    </g>
</svg>